{
	"asset":{
		"generator":"Khronos glTF Blender I/O v4.2.70",
		"version":"2.0"
	},
	"scene":0,
	"scenes":[
		{
			"extras":{
				"uuid":"2239e7dc-2467-4efc-b302-2071d9568684",
				"assets reported":{},
				"qremesher":{
					"use_normals":1,
					"use_materials":1,
					"symmetry_x":0,
					"symmetry_y":0,
					"symmetry_z":0
				}
			},
			"name":"Scene",
			"nodes":[
				0
			]
		}
	],
	"nodes":[
		{
			"mesh":0,
			"name":"Cylinder.002",
			"scale":[
				1.0010000467300415,
				1.0010000467300415,
				1.0010000467300415
			]
		}
	],
	"materials":[
		{
			"alphaMode":"BLEND",
			"doubleSided":true,
			"name":"Material.002",
			"pbrMetallicRoughness":{
				"baseColorTexture":{
					"index":0
				},
				"metallicFactor":0.05454544723033905
			}
		}
	],
	"meshes":[
		{
			"name":"Cylinder.003",
			"primitives":[
				{
					"attributes":{
						"POSITION":0,
						"NORMAL":1,
						"TEXCOORD_0":2
					},
					"indices":3,
					"material":0
				}
			]
		}
	],
	"textures":[
		{
			"sampler":0,
			"source":0
		}
	],
	"images":[
		{
			"mimeType":"image/png",
			"name":"wristband-Texture-full-pink-V1",
			"uri":"wristband-Texture-full-pink-V1.png"
		},
		{
			"mimeType":"image/png",
			"name":"wristband-Texture-pink-white",
			"uri":"wristband-Texture-pink-white.png"
		}
	],
	"accessors":[
		{
			"bufferView":0,
			"componentType":5126,
			"count":2838,
			"max":[
				1.9839985370635986,
				1.9793123006820679,
				1.0363813638687134
			],
			"min":[
				-1.9839985370635986,
				-1.9839985370635986,
				-1.0363811254501343
			],
			"type":"VEC3"
		},
		{
			"bufferView":1,
			"componentType":5126,
			"count":2838,
			"type":"VEC3"
		},
		{
			"bufferView":2,
			"componentType":5126,
			"count":2838,
			"type":"VEC2"
		},
		{
			"bufferView":3,
			"componentType":5123,
			"count":16128,
			"type":"SCALAR"
		}
	],
	"bufferViews":[
		{
			"buffer":0,
			"byteLength":34056,
			"byteOffset":0,
			"target":34962
		},
		{
			"buffer":0,
			"byteLength":34056,
			"byteOffset":34056,
			"target":34962
		},
		{
			"buffer":0,
			"byteLength":22704,
			"byteOffset":68112,
			"target":34962
		},
		{
			"buffer":0,
			"byteLength":32256,
			"byteOffset":90816,
			"target":34963
		}
	],
	"samplers":[
		{
			"magFilter":9729,
			"minFilter":9987
		}
	],
	"buffers":[
		{
			"byteLength":123072,
			"uri":"Talash%20W%20Band%20for%20GLB%20export%20Full%20Pink%20with%20glow.bin"
		}
	]
}
